<?xml version="1.0" standalone="no"?>
<!DOCTYPE svg PUBLIC "-//W3C//DTD SVG 20010904//EN"
 "http://www.w3.org/TR/2001/REC-SVG-20010904/DTD/svg10.dtd">
<svg version="1.0" xmlns="http://www.w3.org/2000/svg"
 width="1247.000000pt" height="1280.000000pt" viewBox="0 0 1247.000000 1280.000000"
 preserveAspectRatio="xMidYMid meet">
<metadata>
Created by potrace 1.15, written by Peter Selinger 2001-2017
</metadata>
<g transform="translate(0.000000,1280.000000) scale(0.100000,-0.100000)"
fill="#000000" stroke="none">
<path d="M5675 12790 c-272 -31 -566 -134 -785 -275 -296 -190 -620 -524
-1116 -1150 -339 -428 -546 -685 -619 -770 -473 -551 -817 -843 -1165 -989
-229 -97 -405 -131 -630 -122 -336 13 -650 107 -1065 320 -110 57 -217 109
-238 116 -65 21 -66 6 -12 -137 51 -139 312 -813 420 -1088 393 -999 584
-1483 1093 -2765 143 -360 400 -1007 571 -1437 170 -431 314 -791 320 -801 13
-24 379 -243 513 -306 256 -121 418 -152 838 -162 298 -8 461 4 578 41 102 32
373 168 484 242 333 223 621 528 1210 1284 443 567 704 868 972 1118 428 401
791 581 1207 598 220 9 450 -26 696 -106 228 -74 348 -132 724 -351 l57 -33
205 -516 c113 -284 398 -1000 633 -1591 749 -1887 1515 -3803 1535 -3842 11
-21 31 -45 44 -54 24 -16 32 -15 153 21 150 43 176 57 166 88 -31 106 -467
1209 -1854 4692 -1027 2580 -2831 7074 -3057 7615 -79 189 -75 186 -194 155
-118 -31 -189 -78 -189 -127 0 -24 -4 -28 -26 -28 -15 0 -111 40 -214 90 -324
154 -504 215 -765 256 -114 18 -385 26 -490 14z m320 -60 c332 -57 639 -152
885 -275 200 -100 284 -186 384 -390 73 -148 366 -888 366 -923 0 -26 -59 -10
-130 34 -173 107 -373 186 -652 258 -171 44 -277 59 -471 65 l-188 6 -143 365
c-220 564 -324 858 -308 874 12 12 145 5 257 -14z m-1383 -715 c59 -113 171
-375 323 -757 108 -272 120 -297 136 -285 10 6 73 52 141 100 294 211 611 371
816 412 116 23 128 17 179 -85 46 -92 210 -484 291 -695 66 -173 120 -341 124
-389 4 -46 27 -34 -225 -115 -259 -83 -423 -171 -695 -374 -110 -82 -146 -98
-167 -76 -7 8 -94 219 -193 470 -100 251 -204 511 -233 578 l-51 121 -26 -14
c-30 -16 -207 -195 -299 -301 -33 -38 -151 -182 -263 -319 -196 -241 -324
-386 -340 -386 -22 0 -341 785 -414 1018 -14 46 -26 107 -26 137 0 47 5 61 51
129 173 256 764 932 808 924 9 -2 37 -43 63 -93z m2450 -1751 c327 -61 583
-149 886 -304 l204 -105 190 -475 c199 -500 281 -716 276 -731 -2 -5 -89 32
-193 82 -293 140 -412 186 -605 234 -164 41 -228 51 -600 91 l-55 6 -84 206
c-117 291 -303 772 -335 869 -34 103 -32 124 14 141 42 15 182 9 302 -14z
m-4322 -341 c7 -16 101 -251 210 -523 217 -542 246 -610 258 -610 14 0 106 80
165 143 107 114 282 320 448 527 90 113 196 239 236 280 l72 75 44 -95 c25
-52 93 -214 152 -360 197 -487 287 -690 308 -690 16 0 95 89 252 285 71 88
170 207 219 265 172 200 414 440 443 440 17 0 33 -37 215 -490 150 -376 260
-634 280 -657 6 -7 14 -13 18 -13 5 0 77 51 162 114 182 134 259 183 393 247
180 86 528 186 546 157 18 -29 370 -920 398 -1008 68 -214 56 -250 -90 -263
-85 -8 -164 -34 -314 -106 -147 -70 -299 -161 -425 -254 -113 -84 -180 -127
-196 -127 -16 0 -64 116 -293 704 -105 269 -193 491 -196 494 -7 7 -96 -77
-184 -173 -40 -44 -209 -244 -376 -445 -166 -201 -316 -378 -332 -393 l-30
-28 -35 68 c-45 86 -116 252 -258 608 -124 309 -194 465 -208 465 -19 0 -162
-160 -338 -380 -318 -395 -546 -648 -575 -638 -15 5 -60 111 -285 673 -105
264 -198 484 -206 489 -26 16 -62 -2 -206 -103 -172 -122 -296 -195 -456 -271
-132 -63 -291 -120 -334 -120 -41 0 -102 -20 -108 -34 -8 -21 59 -216 193
-566 123 -318 194 -520 212 -601 8 -34 6 -44 -8 -58 -120 -120 -1148 179
-1365 396 -87 87 -516 1071 -516 1183 0 20 4 22 33 16 17 -3 86 -32 152 -62
412 -193 630 -261 952 -299 161 -19 234 -19 259 -1 18 14 18 16 2 78 -23 90
-97 287 -274 729 -85 212 -154 390 -154 396 0 6 46 23 103 38 382 102 455 136
742 339 169 120 266 186 275 186 4 0 13 -12 20 -27z m5405 -2163 c238 -40 482
-123 740 -250 88 -43 177 -93 198 -111 21 -17 53 -61 72 -99 100 -199 430
-1032 423 -1066 -2 -10 -55 10 -183 71 -426 203 -712 275 -1097 275 l-153 0
-232 583 c-253 637 -243 602 -166 618 59 13 265 2 398 -21z m-4411 -337 c30
-62 198 -478 338 -843 60 -156 111 -287 114 -289 8 -9 172 160 301 309 69 80
234 280 366 445 132 165 243 304 248 309 12 14 46 -62 234 -529 221 -551 265
-655 274 -655 12 0 63 59 236 275 225 280 388 466 531 606 123 120 156 142
179 118 7 -8 72 -167 145 -354 73 -187 172 -441 221 -564 l89 -223 -134 -142
c-237 -250 -365 -397 -552 -633 -132 -166 -211 -253 -229 -253 -22 0 -115 205
-296 657 -72 180 -145 358 -161 395 l-30 66 -32 -36 c-18 -21 -148 -181 -288
-357 -140 -176 -300 -370 -355 -430 -130 -144 -218 -215 -243 -200 -25 15 -93
171 -323 730 -139 338 -174 415 -188 415 -12 0 -77 -43 -179 -120 -232 -175
-399 -264 -658 -349 -194 -64 -252 -88 -252 -107 0 -19 59 -175 220 -584 176
-446 230 -588 230 -606 0 -46 -414 -13 -645 52 -139 39 -348 126 -600 249
l-230 112 -79 199 c-334 845 -397 1007 -394 1015 2 4 91 -34 198 -85 417 -200
598 -261 870 -297 108 -14 364 -18 376 -6 11 11 1 37 -218 597 -193 491 -228
584 -228 605 0 16 35 31 133 55 236 60 532 206 748 371 107 81 187 129 216
129 17 0 29 -12 47 -47z m1194 -2988 c127 -319 232 -586 234 -594 3 -15 -117
-106 -337 -253 -242 -162 -542 -297 -666 -301 -129 -4 -174 70 -394 653 -125
332 -175 475 -175 505 0 28 28 41 120 55 95 14 196 49 338 116 161 76 280 149
470 290 91 68 169 121 173 116 3 -4 110 -268 237 -587z"/>
</g>
</svg>
